<?xml version="1.0" encoding="UTF-8"?>
<svg width="75px" height="75px" viewBox="0 0 75 75" version="1.1" xmlns="http://www.w3.org/2000/svg" xmlns:xlink="http://www.w3.org/1999/xlink">
    <title>Artboard Copy 10</title>
    <g id="Artboard-Copy-10" stroke="none" stroke-width="1" fill="none" fill-rule="evenodd">
        <path d="M18.5141102,50 L20.4641102,45.07625 L30.2141102,45.07625 L32.0828602,50 L36.8116102,50 L27.6141102,26.09625 L22.9991102,26.09625 L13.7853602,50 L18.5141102,50 Z M28.5078602,40.64 L22.1541102,40.64 L25.3391102,32.43375 L28.5078602,40.64 Z M50.0525,50.60125 C52.0675,50.60125 53.8604167,50.268125 55.43125,49.601875 C57.0020833,48.935625 58.6704167,47.74125 60.43625,46.01875 L60.43625,46.01875 L57.34875,42.80125 C56.0379167,44.10125 54.8354167,44.9977083 53.74125,45.490625 C52.6470833,45.9835417 51.4391667,46.23 50.1175,46.23 C48.5683333,46.23 47.16,45.8779167 45.8925,45.17375 C44.625,44.4695833 43.6445833,43.5 42.95125,42.265 C42.2579167,41.03 41.91125,39.61625 41.91125,38.02375 C41.91125,35.7379167 42.6939583,33.815 44.259375,32.255 C45.8247917,30.695 47.7504167,29.915 50.03625,29.915 C52.7445833,29.915 55.1820833,31.0579167 57.34875,33.34375 L57.34875,33.34375 L60.53375,30.305 C59.2120833,28.7666667 57.6385417,27.5804167 55.813125,26.74625 C53.9877083,25.9120833 52.0891667,25.495 50.1175,25.495 C47.7991667,25.495 45.6352083,26.0583333 43.625625,27.185 C41.6160417,28.3116667 40.0722917,29.80125 38.994375,31.65375 C37.9164583,33.50625 37.3775,35.6241667 37.3775,38.0075 C37.3775,41.6908333 38.5610417,44.710625 40.928125,47.066875 C43.2952083,49.423125 46.3366667,50.60125 50.0525,50.60125 Z" id="AC" fill="#000000" fill-rule="nonzero"></path>
    </g>
</svg>