<?xml version="1.0" encoding="UTF-8"?>
<svg width="75px" height="75px" viewBox="0 0 75 75" version="1.1" xmlns="http://www.w3.org/2000/svg" xmlns:xlink="http://www.w3.org/1999/xlink">
    <title>Artboard Copy 9</title>
    <g id="Artboard-Copy-9" stroke="none" stroke-width="1" fill="none" fill-rule="evenodd">
        <path d="M38.6301801,50.60125 C40.6451801,50.60125 42.4380968,50.268125 44.0089301,49.601875 C45.5797634,48.935625 47.2480968,47.74125 49.0139301,46.01875 L49.0139301,46.01875 L45.9264301,42.80125 C44.6155968,44.10125 43.4130968,44.9977083 42.3189301,45.490625 C41.2247634,45.9835417 40.0168468,46.23 38.6951801,46.23 C37.1460134,46.23 35.7376801,45.8779167 34.4701801,45.17375 C33.2026801,44.4695833 32.2222634,43.5 31.5289301,42.265 C30.8355968,41.03 30.4889301,39.61625 30.4889301,38.02375 C30.4889301,35.7379167 31.2716384,33.815 32.8370551,32.255 C34.4024718,30.695 36.3280968,29.915 38.6139301,29.915 C41.3222634,29.915 43.7597634,31.0579167 45.9264301,33.34375 L45.9264301,33.34375 L49.1114301,30.305 C47.7897634,28.7666667 46.2162218,27.5804167 44.3908051,26.74625 C42.5653884,25.9120833 40.6668468,25.495 38.6951801,25.495 C36.3768468,25.495 34.2128884,26.0583333 32.2033051,27.185 C30.1937218,28.3116667 28.6499718,29.80125 27.5720551,31.65375 C26.4941384,33.50625 25.9551801,35.6241667 25.9551801,38.0075 C25.9551801,41.6908333 27.1387218,44.710625 29.5058051,47.066875 C31.8728884,49.423125 34.9143468,50.60125 38.6301801,50.60125 Z" id="C" fill="#000000" fill-rule="nonzero"></path>
    </g>
</svg>