<?xml version="1.0" encoding="UTF-8"?>
<svg width="75px" height="75px" viewBox="0 0 75 75" version="1.1" xmlns="http://www.w3.org/2000/svg" xmlns:xlink="http://www.w3.org/1999/xlink">
    <title>Artboard Copy 7</title>
    <g id="Artboard-Copy-7" stroke="none" stroke-width="1" fill="none" fill-rule="evenodd">
        <g id="Group" transform="translate(38.000000, 38.500000) rotate(-45.000000) translate(-38.000000, -38.500000) translate(20.000000, 21.000000)" fill="#000000" fill-rule="nonzero">
            <polygon id="Path" points="15.7500008 19.2500079 0 19.2500079 0 14.7499921 15.7500008 14.7499921 20.250001 14.7499921 36 14.7499921 36 19.2500079 20.2500004 19.2500079"></polygon>
            <path d="M18.0000006,0 C15.3703446,0 13.2000006,2.18284666 13.2000006,4.82757851 C13.2000006,7.47231035 15.3703446,9.65516305 18.0000006,9.65516305 C20.6296566,9.65516305 22.8000006,7.47231035 22.8000006,4.82757851 C22.8000006,2.18284666 20.6296566,0 18.0000006,0 Z M18.0000006,3.62068237 C18.6840486,3.62068237 19.2000006,4.1395934 19.2000006,4.82757851 C19.2000006,5.51556965 18.6840486,6.03447464 18.0000006,6.03447464 C17.3159526,6.03447464 16.8000006,5.51556965 16.8000006,4.82757851 C16.8000006,4.1395934 17.3159526,3.62068237 18.0000006,3.62068237 Z M18.0000006,25.3448309 C15.3703446,25.3448309 13.2000006,27.5276836 13.2000006,30.1724155 C13.2000006,32.8171473 15.3703446,35 18.0000006,35 C20.6296566,35 22.8000006,32.8171473 22.8000006,30.1724155 C22.8000006,27.5276836 20.6296566,25.3448309 18.0000006,25.3448309 Z M18.0000006,28.9655193 C18.6840486,28.9655193 19.2000006,29.4844243 19.2000006,30.1724155 C19.2000006,30.8604066 18.6840486,31.3793116 18.0000006,31.3793116 C17.3159526,31.3793116 16.8000006,30.8604066 16.8000006,30.1724155 C16.8000006,29.4844243 17.3159526,28.9655193 18.0000006,28.9655193 Z" id="Shape"></path>
        </g>
    </g>
</svg>