<?xml version="1.0" encoding="UTF-8"?>
<svg width="75px" height="75px" viewBox="0 0 75 75" version="1.1" xmlns="http://www.w3.org/2000/svg" xmlns:xlink="http://www.w3.org/1999/xlink">
    <title>Artboard Copy 13</title>
    <g id="Artboard-Copy-13" stroke="none" stroke-width="1" fill="none" fill-rule="evenodd">
        <g id="Group" transform="translate(37.646447, 38.146447) rotate(-45.000000) translate(-37.646447, -38.146447) translate(19.646447, 35.896439)" fill="#000000" fill-rule="nonzero">
            <polygon id="Path" points="15.7500008 4.50001575 0 4.50001575 0 1.99840844e-15 15.7500008 4.9960211e-13 20.250001 2.49801055e-13 36 2.49801055e-13 36 4.50001575 20.2500004 4.50001575"></polygon>
        </g>
        <polygon id="Path" fill="#000000" fill-rule="nonzero" points="22.1250003 26.8750031 16 26.8750031 16 23.1249969 22.1250003 23.1249969 22.1250003 17 25.8750004 17 25.8750004 23.1249969 32 23.1249969 32 26.8750031 25.8750001 26.8750031 25.8750001 33 22.1250001 33"></polygon>
        <polygon id="Path" fill="#000000" fill-rule="nonzero" points="46 49.8750031 46 46.1249969 60 46.1249969 60 49.8750031"></polygon>
    </g>
</svg>